<svg width="92" height="92" viewBox="0 0 92 92" fill="none" xmlns="http://www.w3.org/2000/svg">
<path d="M80.5001 23.0805C80.5116 22.5208 80.4733 17.4646 75.5167 12.5963C70.6369 7.80463 65.7149 7.66663 65.1667 7.66663H26.8181C25.9019 7.66663 21.0949 7.90813 16.4374 12.6576C11.6381 17.549 11.5001 22.4595 11.5001 23V34.5H7.66675V46H11.5001V69C11.5001 71.8136 13.0564 74.2631 15.3334 75.5971V80.5C15.3334 81.5166 15.7373 82.4916 16.4562 83.2105C17.1751 83.9294 18.1501 84.3333 19.1667 84.3333H23.0001C24.0167 84.3333 24.9918 83.9294 25.7107 83.2105C26.4295 82.4916 26.8334 81.5166 26.8334 80.5V76.6666H65.1667V80.5C65.1667 81.5166 65.5706 82.4916 66.2895 83.2105C67.0084 83.9294 67.9834 84.3333 69.0001 84.3333H72.8334C73.8501 84.3333 74.8251 83.9294 75.544 83.2105C76.2629 82.4916 76.6667 81.5166 76.6667 80.5V75.6048C77.8298 74.9378 78.7964 73.9761 79.4694 72.8166C80.1424 71.6571 80.4979 70.3406 80.5001 69V46H84.3334V34.5H80.5001V23.0805ZM34.5001 15.3333H57.5001V23H34.5001V15.3333ZM24.9167 69C23.3912 68.9995 21.9284 68.393 20.8501 67.3139C19.7718 66.2349 19.1662 64.7716 19.1667 63.2461C19.1673 61.7206 19.7737 60.2578 20.8528 59.1795C21.9319 58.1011 23.3951 57.4956 24.9206 57.4961C26.4461 57.4966 27.9089 58.1031 28.9872 59.1822C30.0656 60.2612 30.6711 61.7245 30.6706 63.25C30.6701 64.7755 30.0636 66.2383 28.9845 67.3166C27.9055 68.395 26.4423 69.0005 24.9167 69ZM42.1667 49.8333H19.1667V30.6666H42.1667V49.8333ZM67.0834 69C65.5579 68.9995 64.0951 68.393 63.0168 67.3139C61.9384 66.2349 61.3329 64.7716 61.3334 63.2461C61.3339 61.7206 61.9404 60.2578 63.0195 59.1795C64.0985 58.1011 65.5617 57.4956 67.0872 57.4961C68.6127 57.4966 70.0756 58.1031 71.1539 59.1822C72.2322 60.2612 72.8378 61.7245 72.8372 63.25C72.8367 64.7755 72.2302 66.2383 71.1512 67.3166C70.0721 68.395 68.6089 69.0005 67.0834 69ZM72.8334 49.8333H49.8334V30.6666H72.8334V49.8333Z" fill="#F49C0B"/>
</svg>
