<svg width="92" height="92" viewBox="0 0 92 92" fill="none" xmlns="http://www.w3.org/2000/svg">
<path d="M54.3951 54.395L23.0001 69L37.6051 37.605L69.0001 23M46.0001 7.66663C40.9661 7.66663 35.9814 8.65815 31.3305 10.5846C26.6797 12.511 22.4539 15.3346 18.8943 18.8942C11.7054 26.0831 7.66675 35.8333 7.66675 46C7.66675 56.1666 11.7054 65.9168 18.8943 73.1057C22.4539 76.6653 26.6797 79.4889 31.3305 81.4153C35.9814 83.3418 40.9661 84.3333 46.0001 84.3333C56.1667 84.3333 65.9169 80.2946 73.1058 73.1057C80.2947 65.9168 84.3334 56.1666 84.3334 46C84.3334 40.966 83.3419 35.9812 81.4155 31.3304C79.489 26.6796 76.6654 22.4538 73.1058 18.8942C69.5463 15.3346 65.3204 12.511 60.6696 10.5846C56.0188 8.65815 51.0341 7.66663 46.0001 7.66663ZM46.0001 41.7833C44.8818 41.7833 43.8092 42.2275 43.0184 43.0183C42.2277 43.8091 41.7834 44.8816 41.7834 46C41.7834 47.1183 42.2277 48.1908 43.0184 48.9816C43.8092 49.7724 44.8818 50.2166 46.0001 50.2166C47.1184 50.2166 48.1909 49.7724 48.9817 48.9816C49.7725 48.1908 50.2167 47.1183 50.2167 46C50.2167 44.8816 49.7725 43.8091 48.9817 43.0183C48.1909 42.2275 47.1184 41.7833 46.0001 41.7833Z" fill="#F49C0B"/>
</svg>
