<svg width="92" height="92" viewBox="0 0 92 92" fill="none" xmlns="http://www.w3.org/2000/svg">
<path d="M74.7501 23H61.3334V19.1667C61.3304 17.1343 60.5217 15.186 59.0845 13.7489C57.6474 12.3118 55.6991 11.503 53.6667 11.5H38.3334C36.301 11.503 34.3527 12.3118 32.9156 13.7489C31.4785 15.186 30.6698 17.1343 30.6667 19.1667V23H17.2501C14.7084 23 12.2709 24.0097 10.4736 25.8069C8.67642 27.6041 7.66675 30.0417 7.66675 32.5833V70.9167C7.66675 73.4583 8.67642 75.8959 10.4736 77.6931C12.2709 79.4903 14.7084 80.5 17.2501 80.5H74.7501C77.2917 80.5 79.7293 79.4903 81.5265 77.6931C83.3237 75.8959 84.3334 73.4583 84.3334 70.9167V32.5833C84.3334 30.0417 83.3237 27.6041 81.5265 25.8069C79.7293 24.0097 77.2917 23 74.7501 23ZM34.5001 19.1667C34.5001 18.15 34.9039 17.175 35.6228 16.4561C36.3417 15.7372 37.3168 15.3333 38.3334 15.3333H53.6667C54.6834 15.3333 55.6584 15.7372 56.3773 16.4561C57.0962 17.175 57.5001 18.15 57.5001 19.1667V23H34.5001V19.1667ZM80.5001 70.9167C80.5001 72.4417 79.8943 73.9042 78.8159 74.9825C77.7376 76.0609 76.2751 76.6667 74.7501 76.6667H17.2501C15.7251 76.6667 14.2626 76.0609 13.1842 74.9825C12.1059 73.9042 11.5001 72.4417 11.5001 70.9167V46.1035L33.8944 53.5708C34.0899 53.6351 34.2944 53.6674 34.5001 53.6667H57.5001C57.7058 53.6674 57.9103 53.6351 58.1057 53.5708L80.5001 46.1035V70.9167ZM80.5001 42.1897C80.2954 42.1827 80.0909 42.2086 79.8944 42.2663L57.1896 49.8333H34.8106L12.1057 42.2625C11.9093 42.2047 11.7048 42.1789 11.5001 42.1858V32.5833C11.5001 31.0583 12.1059 29.5958 13.1842 28.5175C14.2626 27.4391 15.7251 26.8333 17.2501 26.8333H74.7501C76.2751 26.8333 77.7376 27.4391 78.8159 28.5175C79.8943 29.5958 80.5001 31.0583 80.5001 32.5833V42.1897Z" fill="#F49C0B"/>
</svg>
