<svg width="92" height="92" viewBox="0 0 92 92" fill="none" xmlns="http://www.w3.org/2000/svg">
<path fill-rule="evenodd" clip-rule="evenodd" d="M65.1667 11.5C67.2 11.5 69.15 12.3077 70.5878 13.7455C72.0256 15.1833 72.8333 17.1333 72.8333 19.1667V23H76.6667C77.6833 23 78.6584 23.4039 79.3772 24.1228C80.0961 24.8416 80.5 25.8167 80.5 26.8333C80.5 27.85 80.0961 28.825 79.3772 29.5439C78.6584 30.2628 77.6833 30.6667 76.6667 30.6667V72.8333C77.6833 72.8333 78.6584 73.2372 79.3772 73.9561C80.0961 74.675 80.5 75.65 80.5 76.6667C80.5 77.6833 80.0961 78.6584 79.3772 79.3772C78.6584 80.0961 77.6833 80.5 76.6667 80.5H51.75V63.25C51.75 61.725 51.1442 60.2625 50.0659 59.1841C48.9875 58.1058 47.525 57.5 46 57.5C44.475 57.5 43.0125 58.1058 41.9341 59.1841C40.8558 60.2625 40.25 61.725 40.25 63.25V80.5H15.3333C14.3167 80.5 13.3416 80.0961 12.6228 79.3772C11.9039 78.6584 11.5 77.6833 11.5 76.6667C11.5 75.65 11.9039 74.675 12.6228 73.9561C13.3416 73.2372 14.3167 72.8333 15.3333 72.8333V30.6667C14.3167 30.6667 13.3416 30.2628 12.6228 29.5439C11.9039 28.825 11.5 27.85 11.5 26.8333C11.5 25.8167 11.9039 24.8416 12.6228 24.1228C13.3416 23.4039 14.3167 23 15.3333 23H19.1667V19.1667C19.1667 17.1333 19.9744 15.1833 21.4122 13.7455C22.85 12.3077 24.8 11.5 26.8333 11.5H65.1667ZM30.6667 49.8333C29.65 49.8333 28.675 50.2372 27.9561 50.9561C27.2372 51.675 26.8333 52.65 26.8333 53.6667V57.5C26.8333 58.5167 27.2372 59.4917 27.9561 60.2106C28.675 60.9295 29.65 61.3333 30.6667 61.3333C31.6833 61.3333 32.6584 60.9295 33.3772 60.2106C34.0961 59.4917 34.5 58.5167 34.5 57.5V53.6667C34.5 52.65 34.0961 51.675 33.3772 50.9561C32.6584 50.2372 31.6833 49.8333 30.6667 49.8333ZM61.3333 49.8333C60.3944 49.8335 59.4882 50.1782 58.7866 50.8021C58.0849 51.426 57.6367 52.2857 57.5268 53.2182L57.5 53.6667V57.5C57.5011 58.477 57.8752 59.4168 58.5459 60.1272C59.2166 60.8377 60.1333 61.2652 61.1087 61.3225C62.084 61.3798 63.0445 61.0624 63.7937 60.4353C64.5429 59.8082 65.0244 58.9187 65.1398 57.9485L65.1667 57.5V53.6667C65.1667 52.65 64.7628 51.675 64.0439 50.9561C63.325 50.2372 62.35 49.8333 61.3333 49.8333ZM30.6667 34.5C29.7278 34.5001 28.8215 34.8448 28.1199 35.4687C27.4183 36.0927 26.97 36.9524 26.8602 37.8848L26.8333 38.3333V42.1667C26.8344 43.1437 27.2085 44.0835 27.8793 44.7939C28.55 45.5044 29.4667 45.9319 30.442 45.9892C31.4174 46.0464 32.3778 45.7291 33.127 45.102C33.8763 44.4749 34.3578 43.5854 34.4732 42.6152L34.5 42.1667V38.3333C34.5 37.3167 34.0961 36.3416 33.3772 35.6228C32.6584 34.9039 31.6833 34.5 30.6667 34.5ZM46 34.5C45.0611 34.5001 44.1549 34.8448 43.4532 35.4687C42.7516 36.0927 42.3034 36.9524 42.1935 37.8848L42.1667 38.3333V42.1667C42.1677 43.1437 42.5419 44.0835 43.2126 44.7939C43.8833 45.5044 44.8 45.9319 45.7753 45.9892C46.7507 46.0464 47.7111 45.7291 48.4604 45.102C49.2096 44.4749 49.6911 43.5854 49.8065 42.6152L49.8333 42.1667V38.3333C49.8333 37.3167 49.4295 36.3416 48.7106 35.6228C47.9917 34.9039 47.0167 34.5 46 34.5ZM61.3333 34.5C60.3167 34.5 59.3416 34.9039 58.6228 35.6228C57.9039 36.3416 57.5 37.3167 57.5 38.3333V42.1667C57.5 43.1833 57.9039 44.1584 58.6228 44.8772C59.3416 45.5961 60.3167 46 61.3333 46C62.35 46 63.325 45.5961 64.0439 44.8772C64.7628 44.1584 65.1667 43.1833 65.1667 42.1667V38.3333C65.1667 37.3167 64.7628 36.3416 64.0439 35.6228C63.325 34.9039 62.35 34.5 61.3333 34.5ZM65.1667 19.1667H26.8333V23H65.1667V19.1667Z" fill="#F49C0B"/>
</svg>
