<svg width="92" height="92" viewBox="0 0 92 92" fill="none" xmlns="http://www.w3.org/2000/svg">
<path fill-rule="evenodd" clip-rule="evenodd" d="M46 2.875C47.0167 2.875 47.9917 3.27887 48.7106 3.99776C49.4295 4.71665 49.8333 5.69167 49.8333 6.70833V12.4583C49.8333 13.475 49.4295 14.45 48.7106 15.1689C47.9917 15.8878 47.0167 16.2917 46 16.2917C44.9833 16.2917 44.0083 15.8878 43.2894 15.1689C42.5705 14.45 42.1667 13.475 42.1667 12.4583V6.70833C42.1667 5.69167 42.5705 4.71665 43.2894 3.99776C44.0083 3.27887 44.9833 2.875 46 2.875ZM46 25.875C34.3563 25.875 24.9167 35.3146 24.9167 46.9583C24.9167 49.2277 25.2751 51.4069 25.9325 53.4463C26.234 54.4105 26.1426 55.4548 25.6782 56.3521C25.2138 57.2494 24.414 57.927 23.4526 58.2377C22.4913 58.5484 21.4461 58.467 20.5445 58.0112C19.6428 57.5554 18.9575 56.7621 18.6377 55.8038C17.716 52.9458 17.2478 49.9612 17.25 46.9583C17.25 31.0807 30.1223 18.2083 46 18.2083C61.8777 18.2083 74.75 31.0807 74.75 46.9583C74.75 50.0384 74.2651 53.0131 73.3623 55.8038C73.0425 56.7621 72.3572 57.5554 71.4555 58.0112C70.5539 58.467 69.5087 58.5484 68.5474 58.2377C67.586 57.927 66.7862 57.2494 66.3218 56.3521C65.8574 55.4548 65.766 54.4105 66.0675 53.4463C66.7249 51.4069 67.0833 49.2296 67.0833 46.9583C67.0833 35.3146 57.6437 25.875 46 25.875ZM86.25 50.7917C87.2667 50.7917 88.2417 50.3878 88.9606 49.6689C89.6795 48.95 90.0833 47.975 90.0833 46.9583C90.0833 45.9417 89.6795 44.9667 88.9606 44.2478C88.2417 43.5289 87.2667 43.125 86.25 43.125H80.5C79.4833 43.125 78.5083 43.5289 77.7894 44.2478C77.0705 44.9667 76.6667 45.9417 76.6667 46.9583C76.6667 47.975 77.0705 48.95 77.7894 49.6689C78.5083 50.3878 79.4833 50.7917 80.5 50.7917H86.25ZM15.3333 46.9583C15.3333 47.975 14.9295 48.95 14.2106 49.6689C13.4917 50.3878 12.5167 50.7917 11.5 50.7917H5.75C4.73334 50.7917 3.75831 50.3878 3.03942 49.6689C2.32053 48.95 1.91667 47.975 1.91667 46.9583C1.91667 45.9417 2.32053 44.9667 3.03942 44.2478C3.75831 43.5289 4.73334 43.125 5.75 43.125H11.5C12.5167 43.125 13.4917 43.5289 14.2106 44.2478C14.9295 44.9667 15.3333 45.9417 15.3333 46.9583ZM18.8945 25.2732C19.6175 25.9714 20.5858 26.3578 21.5909 26.3491C22.596 26.3404 23.5574 25.9372 24.2681 25.2265C24.9789 24.5157 25.382 23.5543 25.3907 22.5492C25.3995 21.5441 25.0131 20.5758 24.3148 19.8528L20.2496 15.7857C19.5305 15.0666 18.5553 14.6627 17.5385 14.6627C16.5216 14.6627 15.5464 15.0666 14.8273 15.7857C14.1083 16.5047 13.7043 17.4799 13.7043 18.4968C13.7043 19.0003 13.8035 19.4989 13.9962 19.964C14.1889 20.4292 14.4713 20.8519 14.8273 21.2079L18.8945 25.2732ZM67.6852 25.2732C68.404 25.9918 69.3789 26.3955 70.3953 26.3955C71.4118 26.3955 72.3866 25.9918 73.1055 25.2732L77.1727 21.2079C77.8917 20.4889 78.2957 19.5137 78.2957 18.4968C78.2957 17.4799 77.8917 16.5047 77.1727 15.7857C76.4536 15.0666 75.4784 14.6627 74.4615 14.6627C73.4447 14.6627 72.4695 15.0666 71.7504 15.7857L67.6852 19.8528C66.9665 20.5717 66.5628 21.5465 66.5628 22.563C66.5628 23.5795 66.9665 24.5543 67.6852 25.2732ZM13.7176 64.63C15.3298 63.5505 17.2264 62.9742 19.1667 62.9742C21.1069 62.9742 23.0035 63.5505 24.6157 64.63C26.9653 66.2286 29.7415 67.0834 32.5833 67.0834C35.4252 67.0834 38.2013 66.2286 40.5509 64.63C42.1632 63.5505 44.0597 62.9742 46 62.9742C47.9403 62.9742 49.8368 63.5505 51.4491 64.63C53.7994 66.2268 56.5752 67.0808 59.4167 67.0814C62.2583 67.0803 65.0341 66.2256 67.3843 64.6281C68.9965 63.5486 70.8931 62.9723 72.8333 62.9723C74.7736 62.9723 76.6702 63.5486 78.2824 64.6281C80.6325 66.2256 83.4083 67.0803 86.25 67.0814C87.3937 67.0814 88.4906 67.5358 89.2994 68.3445C90.1081 69.1533 90.5625 70.2502 90.5625 71.3939C90.5625 72.5377 90.1081 73.6346 89.2994 74.4433C88.4906 75.2521 87.3937 75.7064 86.25 75.7064C81.7803 75.7064 77.3126 74.3916 73.4409 71.7658C73.2578 71.6544 73.0476 71.5955 72.8333 71.5955C72.619 71.5955 72.4088 71.6544 72.2257 71.7658C68.4475 74.3334 63.9848 75.7062 59.4167 75.7062C54.8485 75.7062 50.3858 74.3334 46.6076 71.7658C46.4245 71.6544 46.2143 71.5955 46 71.5955C45.7857 71.5955 45.5755 71.6544 45.3924 71.7658C41.6142 74.3334 37.1515 75.7062 32.5833 75.7062C28.0152 75.7062 23.5525 74.3334 19.7743 71.7658C19.5912 71.6544 19.381 71.5955 19.1667 71.5955C18.9524 71.5955 18.7422 71.6544 18.5591 71.7658C14.7806 74.333 10.3182 75.7065 5.75 75.7083C4.60625 75.7083 3.50935 75.254 2.7006 74.4452C1.89185 73.6365 1.4375 72.5396 1.4375 71.3958C1.4375 70.2521 1.89185 69.1552 2.7006 68.3464C3.50935 67.5377 4.60625 67.0833 5.75 67.0833C8.59186 67.0816 11.3677 66.2282 13.7176 64.63ZM13.7176 78.0448C15.3298 76.9653 17.2264 76.389 19.1667 76.389C21.1069 76.389 23.0035 76.9653 24.6157 78.0448C26.9653 79.6433 29.7415 80.4982 32.5833 80.4982C35.4252 80.4982 38.2013 79.6433 40.5509 78.0448C42.1632 76.9653 44.0597 76.389 46 76.389C47.9403 76.389 49.8368 76.9653 51.4491 78.0448C53.7992 79.6422 56.575 80.4969 59.4167 80.4981C62.2583 80.4969 65.0341 79.6422 67.3843 78.0448C68.9965 76.9653 70.8931 76.389 72.8333 76.389C74.7736 76.389 76.6702 76.9653 78.2824 78.0448C80.6325 79.6422 83.4083 80.4969 86.25 80.4981C87.3937 80.4981 88.4906 80.9524 89.2994 81.7612C90.1081 82.5699 90.5625 83.6668 90.5625 84.8106C90.5625 85.9543 90.1081 87.0512 89.2994 87.86C88.4906 88.6687 87.3937 89.1231 86.25 89.1231H5.75C4.62225 89.0993 3.5487 88.6346 2.75954 87.8286C1.97037 87.0227 1.52841 85.9396 1.52841 84.8116C1.52841 83.6835 1.97037 82.6004 2.75954 81.7945C3.5487 80.9885 4.62225 80.5238 5.75 80.5C8.59166 80.4989 11.3675 79.6422 13.7176 78.0448Z" fill="#F49C0B"/>
</svg>
