<svg width="92" height="92" viewBox="0 0 92 92" fill="none" xmlns="http://www.w3.org/2000/svg">
<g clip-path="url(#clip0_29_82)">
<path d="M46.3967 3.60112e-05C47.9032 3.60112e-05 49.3867 0.097786 50.7667 0.327786C52.1264 0.502926 53.4676 0.799272 54.7745 1.21329C56.0778 1.60429 57.3696 2.10837 58.65 2.72554C59.8977 3.31779 61.18 4.04229 62.4622 4.83004C64.63 6.21004 66.7632 7.32554 68.9367 8.21679C73.2144 9.93282 77.7396 10.952 82.34 11.2355C84.6668 11.408 87.076 11.4962 89.5677 11.5V34.5C89.5677 38.8662 89.01 43.0177 87.8945 46.9545C86.8227 50.8427 85.3002 54.5922 83.3577 58.1268C81.4237 61.6566 79.1348 64.98 76.5267 68.0455C73.8803 71.1822 71.0133 74.126 67.9477 76.8545C64.8389 79.5877 61.569 82.1318 58.1555 84.4733C54.7361 86.85 51.2976 89.0407 47.84 91.0455L46.46 91.8678L45.08 91.0455C41.5331 88.9927 38.0689 86.8002 34.6955 84.4733C31.2637 82.1569 27.9921 79.6116 24.9032 76.8545C21.8396 74.1258 18.9746 71.182 16.33 68.0455C13.7307 64.9656 11.4317 61.6442 9.46447 58.1268C7.55697 54.5757 6.03601 50.8302 4.92772 46.9545C3.81258 42.8978 3.25925 38.7072 3.28322 34.5V11.5C5.77488 11.4962 8.18605 11.408 10.5167 11.2355C12.8151 11.0793 15.0986 10.7506 17.3477 10.2523C19.55 9.75779 21.7522 9.10229 23.92 8.21679C26.1688 7.30775 28.3254 6.1852 30.36 4.86454C32.89 3.22004 35.4545 2.00679 37.9845 1.20754C40.7094 0.37315 43.5471 -0.0341773 46.3967 3.60112e-05ZM83.7832 17.1523C79.4308 16.9393 75.119 16.2116 70.9377 14.9845C66.7801 13.7411 62.8193 11.9156 59.1732 9.56229C57.2815 8.32378 55.2287 7.35062 53.0725 6.67004C50.9173 6.02005 48.6765 5.69828 46.4255 5.71554C44.1577 5.70171 41.9004 6.02336 39.7267 6.67004C37.5679 7.33034 35.5181 8.30487 33.6432 9.56229C29.9895 11.9261 26.0188 13.7594 21.85 15.0075C17.7751 16.192 13.5029 16.9165 9.03322 17.181V34.5288C9.03322 38.3353 9.52772 41.9923 10.5167 45.4998C11.5251 48.9822 12.9135 52.3432 14.6567 55.522C16.4215 58.7337 18.5018 61.7616 20.8667 64.561C23.2645 67.3843 25.8232 70.012 28.5832 72.5075C31.3432 75.003 34.2355 77.3145 37.26 79.442C40.3151 81.5734 43.3703 83.5226 46.4255 85.2898C49.5533 83.4721 52.6017 81.521 55.5622 79.442C58.6103 77.3204 61.5182 75.0041 64.2677 72.5075C67.0277 70.012 69.5922 67.3843 71.99 64.561C74.3549 61.7616 76.4351 58.7337 78.2 55.522C79.9344 52.3466 81.3021 48.9843 82.2767 45.4998C83.2968 41.9328 83.8041 38.2387 83.7832 34.5288V17.1523Z" fill="#F49C0B"/>
<path fill-rule="evenodd" clip-rule="evenodd" d="M67.8327 27.0768L65.3027 24.9033L62.9682 25.1046L37.8982 54.7056L29.3595 42.5156L27.0595 42.1246L24.3972 44.0278L24.0005 46.3278L34.9772 62.0023L36.225 62.6923L38.8527 62.8533L40.1982 62.2668L67.9995 29.4056L67.8327 27.0768Z" fill="#F49C0B"/>
</g>
<defs>
<clipPath id="clip0_29_82">
<rect width="92" height="92" fill="white"/>
</clipPath>
</defs>
</svg>
