<svg width="65" height="65" viewBox="0 0 65 65" fill="none" xmlns="http://www.w3.org/2000/svg">
<path d="M33.15 8.03025C32.8492 8.03074 32.5522 8.09805 32.2805 8.22733C32.0089 8.3566 31.7693 8.5446 31.5792 8.77775L31.4221 8.89421C28.4771 7.99941 25.3448 7.91793 22.3572 8.65839C19.3696 9.39885 16.638 10.9337 14.4517 13.1002C12.5156 15.0192 11.0757 17.3807 10.2566 19.9806C9.4374 22.5806 9.26355 25.3409 9.75002 28.0232L9.7094 28.0638L7.11481 30.6394C6.57968 31.1706 6.15497 31.8024 5.86513 32.4985C5.5753 33.1946 5.42609 33.9411 5.42609 34.6951C5.42609 35.4491 5.5753 36.1957 5.86513 36.8918C6.15497 37.5879 6.57968 38.2197 7.11481 38.7509C7.74545 39.3761 8.51131 39.848 9.35329 40.1302C10.1953 40.4124 11.0908 40.4974 11.9709 40.3786C12.2846 41.5208 12.9423 42.5388 13.8547 43.2942C14.7671 44.0496 15.8899 44.5058 17.0706 44.6009C17.192 45.9896 17.8121 47.2875 18.8164 48.2544C19.8206 49.2213 21.141 49.7918 22.5334 49.8605C22.6038 51.2309 23.1644 52.5796 24.2179 53.625C26.2763 55.6725 29.5046 55.8486 31.7661 54.1586L32.8142 55.1986C33.9048 56.2802 35.3786 56.8871 36.9146 56.8871C38.4506 56.8871 39.9244 56.2802 41.015 55.1986C42.0171 54.1992 42.5777 52.929 42.6942 51.629C44.0453 51.5135 45.3125 50.9256 46.2734 49.9688C47.2342 49.0119 47.8272 47.7471 47.9484 46.3965C49.1386 46.2863 50.2652 45.8092 51.1725 45.0309C52.0797 44.2527 52.7229 43.2119 53.0129 42.0523C53.8798 42.1554 54.7587 42.0613 55.5841 41.7771C56.4094 41.4929 57.16 41.026 57.7796 40.4111C58.3143 39.8799 58.7387 39.2483 59.0283 38.5524C59.3179 37.8566 59.467 37.1104 59.467 36.3567C59.467 35.603 59.3179 34.8568 59.0283 34.161C58.7387 33.4651 58.3143 32.8335 57.7796 32.3023L55.5236 30.0571L55.9894 28.2534C56.9977 24.3281 56.4901 20.1671 54.5675 16.5994C53.1691 14.0093 51.0955 11.846 48.5669 10.3392C46.0382 8.8324 43.1488 8.03827 40.2052 8.04108H35.8529C35.6671 8.03268 35.4811 8.02907 35.295 8.03025H33.15ZM41.0719 21.423L50.4536 30.7423L50.4617 30.7559L50.4996 30.7911L54.9007 35.165C55.0579 35.3211 55.1827 35.5068 55.2678 35.7113C55.353 35.9158 55.3968 36.1352 55.3968 36.3567C55.3968 36.5782 55.353 36.7976 55.2678 37.0021C55.1827 37.2066 55.0579 37.3923 54.9007 37.5484C54.5812 37.8643 54.1501 38.0415 53.7009 38.0415C53.2516 38.0415 52.8205 37.8643 52.5011 37.5484L48.1 33.1744C47.7166 32.7947 47.1988 32.5816 46.6592 32.5816C46.1196 32.5816 45.6018 32.7947 45.2184 33.1744L45.175 33.2205C44.9859 33.4078 44.8359 33.6308 44.7334 33.8764C44.631 34.1221 44.5783 34.3856 44.5783 34.6518C44.5783 34.918 44.631 35.1815 44.7334 35.4272C44.8359 35.6729 44.9859 35.8958 45.175 36.0832L48.6038 39.4902C48.7618 39.6464 48.8873 39.8324 48.9729 40.0374C49.0586 40.2425 49.1027 40.4624 49.1027 40.6846C49.1027 40.9068 49.0586 41.1268 48.9729 41.3318C48.8873 41.5368 48.7618 41.7228 48.6038 41.879C48.3139 42.166 47.9307 42.3397 47.5238 42.3685C47.1169 42.3973 46.7131 42.2794 46.3857 42.0361C45.9914 41.7415 45.5042 41.5988 45.0133 41.6341C44.5223 41.6694 44.0606 41.8804 43.7125 42.2284C43.3655 42.5752 43.157 43.0368 43.1261 43.5264C43.0952 44.0161 43.244 44.5002 43.5446 44.888C43.7944 45.2123 43.9172 45.6167 43.8898 46.0252C43.8623 46.4337 43.6866 46.8181 43.3956 47.1061C43.1013 47.3978 42.7109 47.5724 42.2972 47.5973C41.8835 47.6222 41.475 47.4958 41.1477 47.2415C40.7562 46.9361 40.267 46.7834 39.7713 46.8118C39.2756 46.8402 38.807 47.0477 38.4529 47.3959C38.1 47.7431 37.8873 48.2081 37.8554 48.7021C37.8234 49.1961 37.9744 49.6846 38.2796 50.0744C38.5355 50.4037 38.6619 50.8154 38.6349 51.2315C38.608 51.6477 38.4296 52.0396 38.1334 52.3332C37.8089 52.654 37.3709 52.834 36.9146 52.834C36.4583 52.834 36.0203 52.654 35.6959 52.3332L34.6884 51.3338L34.9727 51.0494C35.5075 50.5183 35.9318 49.8866 36.2214 49.1908C36.511 48.495 36.6601 47.7487 36.6601 46.995C36.6601 46.2414 36.511 45.4951 36.2214 44.7993C35.9318 44.1035 35.5075 43.4718 34.9727 42.9407C33.9598 41.9323 32.6087 41.3359 31.1811 41.2669C31.1032 39.8757 30.5244 38.5596 29.5516 37.5619C28.5789 36.5642 27.2778 35.9524 25.889 35.8394C25.779 34.4827 25.1861 33.2104 24.2179 32.2536C23.5873 31.6284 22.8214 31.1565 21.9795 30.8742C21.1375 30.592 20.2419 30.507 19.3619 30.6259C19.0194 29.3786 18.2676 28.2826 17.2273 27.5139C16.187 26.7452 14.9185 26.3484 13.6256 26.3873C13.419 24.4823 13.6451 22.5552 14.2871 20.7498C14.9291 18.9443 15.9704 17.3071 17.3334 15.9602C18.603 14.6996 20.1207 13.7165 21.7902 13.0731C23.4597 12.4297 25.2446 12.1402 27.0319 12.2227L22.9775 15.2913C22.3187 15.7899 21.7649 16.4139 21.3481 17.1274C20.9314 17.8409 20.6598 18.6297 20.549 19.4485C20.4383 20.2673 20.4905 21.1 20.7028 21.8985C20.9151 22.6971 21.2831 23.4457 21.7859 24.1015C22.8012 25.425 24.2986 26.2933 25.9516 26.517C27.6046 26.7408 29.279 26.3018 30.6096 25.2959L35.7256 21.4202L41.0719 21.423ZM25.4286 18.5332L33.93 12.0927H35.295C35.4639 12.092 35.6328 12.0965 35.8015 12.1063H40.2052C42.4148 12.1033 44.584 12.6984 46.4827 13.8285C48.3814 14.9586 49.9388 16.5815 50.9898 18.525C52.3304 21.0167 52.7502 23.8821 52.1923 26.6365L43.4959 17.9807C43.3066 17.7847 43.0798 17.6287 42.829 17.5222C42.5782 17.4156 42.3085 17.3606 42.0361 17.3605H35.0459C34.603 17.3603 34.1721 17.5048 33.819 17.7721L28.1586 22.0594C27.6839 22.4176 27.0869 22.5739 26.4975 22.4943C25.9082 22.4147 25.3741 22.1056 25.0115 21.6342C24.8344 21.4034 24.7047 21.1399 24.6299 20.8588C24.5551 20.5777 24.5367 20.2845 24.5758 19.9963C24.6148 19.708 24.7105 19.4303 24.8573 19.1792C25.0041 18.9281 25.1992 18.7085 25.4313 18.5332M16.3475 40.0752C16.1903 39.9192 16.0655 39.7335 15.9804 39.529C15.8952 39.3245 15.8514 39.1051 15.8514 38.8836C15.8514 38.662 15.8952 38.4427 15.9804 38.2382C16.0655 38.0336 16.1903 37.848 16.3475 37.6919L18.9394 35.119C19.2588 34.8031 19.6899 34.6259 20.1392 34.6259C20.5884 34.6259 21.0196 34.8031 21.339 35.119C21.652 35.4304 21.8298 35.8525 21.8338 36.294C21.8379 36.7355 21.6679 37.1609 21.3606 37.478L21.339 37.5023L18.7471 40.0752L18.7227 40.0996C18.4016 40.4053 17.9741 40.574 17.5307 40.57C17.0874 40.5659 16.663 40.3895 16.3475 40.078M15.0177 30.9563C15.3234 31.274 15.492 31.6991 15.4869 32.14C15.4818 32.5808 15.3036 33.002 14.9906 33.3125L12.3988 35.8909C12.0793 36.2068 11.6482 36.3839 11.199 36.3839C10.7497 36.3839 10.3186 36.2068 9.99919 35.8909C9.84197 35.7348 9.71718 35.5491 9.63203 35.3446C9.54688 35.1401 9.50304 34.9207 9.50304 34.6992C9.50304 34.4777 9.54688 34.2583 9.63203 34.0538C9.71718 33.8493 9.84197 33.6636 9.99919 33.5075L12.5938 30.9319C12.9132 30.616 13.3443 30.4388 13.7936 30.4388C14.2428 30.4388 14.6739 30.616 14.9934 30.9319L15.0177 30.9563ZM29.5019 50.765C29.1825 51.0809 28.7514 51.2581 28.3021 51.2581C27.8529 51.2581 27.4217 51.0809 27.1023 50.765C26.9451 50.609 26.8203 50.4233 26.7352 50.2188C26.65 50.0143 26.6062 49.7949 26.6062 49.5734C26.6062 49.3518 26.65 49.1325 26.7352 48.928C26.8203 48.7234 26.9451 48.5378 27.1023 48.3817L29.6942 45.8061C30.0136 45.4902 30.4447 45.313 30.894 45.313C31.3432 45.313 31.7744 45.4902 32.0938 45.8061C32.251 45.9622 32.3758 46.1478 32.4609 46.3523C32.5461 46.5569 32.5899 46.7762 32.5899 46.9977C32.5899 47.2193 32.5461 47.4386 32.4609 47.6432C32.3758 47.8477 32.251 48.0333 32.0938 48.1894L29.5019 50.765ZM24.0284 45.3267C23.7089 45.6426 23.2778 45.8198 22.8286 45.8198C22.3793 45.8198 21.9482 45.6426 21.6288 45.3267C21.3146 45.0156 21.1358 44.593 21.1312 44.1509C21.1266 43.7087 21.2967 43.2826 21.6044 42.965L21.6288 42.9434L24.2206 40.3677L24.2423 40.3434C24.5639 40.0372 24.9922 39.8685 25.4362 39.8731C25.8802 39.8776 26.305 40.0551 26.6202 40.3677C26.7775 40.5238 26.9022 40.7095 26.9874 40.914C27.0725 41.1185 27.1164 41.3379 27.1164 41.5594C27.1164 41.781 27.0725 42.0003 26.9874 42.2048C26.9022 42.4093 26.7775 42.595 26.6202 42.7511L24.0284 45.3267Z" fill="white"/>
</svg>
