<svg width="39" height="39" viewBox="0 0 39 39" fill="none" xmlns="http://www.w3.org/2000/svg">
<path d="M30.9563 7.97884C29.4663 6.47426 27.6917 5.28128 25.736 4.46943C23.7803 3.65757 21.6826 3.24307 19.565 3.25009C10.6925 3.25009 3.4613 10.4813 3.4613 19.3538C3.4613 22.1976 4.2088 24.9601 5.6063 27.3976L3.3313 35.7501L11.8625 33.5076C14.2188 34.7913 16.8675 35.4738 19.565 35.4738C28.4375 35.4738 35.6688 28.2426 35.6688 19.3701C35.6688 15.0638 33.995 11.0176 30.9563 7.97884ZM19.565 32.7438C17.16 32.7438 14.8038 32.0938 12.74 30.8751L12.2525 30.5826L7.18255 31.9151L8.5313 26.9751L8.2063 26.4713C6.86981 24.3378 6.1603 21.8714 6.1588 19.3538C6.1588 11.9763 12.1713 5.96384 19.5488 5.96384C23.1238 5.96384 26.4875 7.36134 29.0063 9.89634C30.2537 11.1376 31.2422 12.6142 31.9144 14.2405C32.5867 15.8668 32.9294 17.6104 32.9225 19.3701C32.955 26.7476 26.9425 32.7438 19.565 32.7438ZM26.91 22.7338C26.5038 22.5388 24.5213 21.5638 24.1638 21.4176C23.79 21.2876 23.53 21.2226 23.2538 21.6126C22.9775 22.0188 22.2138 22.9288 21.9863 23.1888C21.7588 23.4651 21.515 23.4976 21.1088 23.2863C20.7025 23.0913 19.4025 22.6526 17.875 21.2876C16.6725 20.2151 15.8763 18.8988 15.6325 18.4926C15.405 18.0863 15.6 17.8751 15.8113 17.6638C15.99 17.4851 16.2175 17.1926 16.4125 16.9651C16.6075 16.7376 16.6888 16.5588 16.8188 16.2988C16.9488 16.0226 16.8838 15.7951 16.7863 15.6001C16.6888 15.4051 15.8763 13.4226 15.5513 12.6101C15.2263 11.8301 14.885 11.9276 14.6413 11.9113H13.8613C13.585 11.9113 13.1625 12.0088 12.7888 12.4151C12.4313 12.8213 11.3913 13.7963 11.3913 15.7788C11.3913 17.7613 12.8375 19.6788 13.0325 19.9388C13.2275 20.2151 15.8763 24.2776 19.9063 26.0163C20.865 26.4388 21.6125 26.6826 22.1975 26.8613C23.1563 27.1701 24.0338 27.1213 24.7325 27.0238C25.5125 26.9101 27.1213 26.0488 27.4463 25.1063C27.7875 24.1638 27.7875 23.3676 27.6738 23.1888C27.56 23.0101 27.3163 22.9288 26.91 22.7338Z" fill="#F6B15C"/>
</svg>
