<svg width="161" height="103" viewBox="0 0 161 103" fill="none" xmlns="http://www.w3.org/2000/svg">
<path d="M125.812 102.943C134.903 102.912 143.613 99.2877 150.042 92.8594C156.47 86.4311 160.095 77.7211 160.125 68.6301C160.125 60.3379 158.375 52.6176 153.949 46.2584C150.815 41.7177 145.416 39.0527 140.269 36.1934C140.212 27.1577 140.327 24.9389 147.464 13.0553C152.119 5.30069 143.152 -3.449 135.512 1.38907C119.293 11.7057 108.244 20.9358 101.13 31.8128C94.0163 42.667 91.5 54.8136 91.5 68.6301C91.5151 77.7257 95.135 86.4445 101.567 92.876C107.998 99.3076 116.717 102.928 125.812 102.943ZM34.3125 102.943C43.4035 102.912 52.1135 99.2877 58.5418 92.8594C64.9701 86.4311 68.5948 77.7211 68.625 68.6301C68.625 60.3379 66.8751 52.6176 62.4488 46.2584C59.3149 41.7177 53.9164 39.0527 48.7695 36.1934C48.7123 27.1577 48.8152 24.9389 55.9637 13.0553C60.6187 5.30069 51.6517 -3.449 44.0115 1.38907C27.7931 11.7057 16.7445 20.9358 9.63037 31.8128C2.51625 42.667 0 54.8136 0 68.6301C0.0151215 77.7257 3.63504 86.4445 10.0666 92.876C16.4982 99.3076 25.2169 102.928 34.3125 102.943Z" fill="black" fill-opacity="0.07"/>
</svg>
