<svg width="65" height="65" viewBox="0 0 65 65" fill="none" xmlns="http://www.w3.org/2000/svg">
<path d="M51.4583 18.9583V10.8333C51.4583 10.115 51.173 9.42616 50.6651 8.91825C50.1572 8.41034 49.4683 8.125 48.75 8.125H13.5417C12.1051 8.125 10.7273 8.69568 9.7115 9.7115C8.69568 10.7273 8.125 12.1051 8.125 13.5417C8.125 14.9783 8.69568 16.356 9.7115 17.3718C10.7273 18.3877 12.1051 18.9583 13.5417 18.9583H54.1667C54.885 18.9583 55.5738 19.2437 56.0817 19.7516C56.5897 20.2595 56.875 20.9484 56.875 21.6667V32.5M56.875 32.5H48.75C47.3134 32.5 45.9357 33.0707 44.9198 34.0865C43.904 35.1023 43.3333 36.4801 43.3333 37.9167C43.3333 39.3533 43.904 40.731 44.9198 41.7468C45.9357 42.7626 47.3134 43.3333 48.75 43.3333H56.875C57.5933 43.3333 58.2822 43.048 58.7901 42.5401C59.298 42.0322 59.5833 41.3433 59.5833 40.625V35.2083C59.5833 34.49 59.298 33.8012 58.7901 33.2933C58.2822 32.7853 57.5933 32.5 56.875 32.5Z" stroke="white" stroke-width="2" stroke-linecap="round" stroke-linejoin="round"/>
<path d="M8.125 13.5417V51.4584C8.125 52.895 8.69568 54.2728 9.7115 55.2886C10.7273 56.3044 12.1051 56.8751 13.5417 56.8751H54.1667C54.885 56.8751 55.5738 56.5897 56.0817 56.0818C56.5897 55.5739 56.875 54.885 56.875 54.1667V43.3334" stroke="white" stroke-width="2" stroke-linecap="round" stroke-linejoin="round"/>
</svg>
