<svg width="65" height="65" viewBox="0 0 65 65" fill="none" xmlns="http://www.w3.org/2000/svg">
<path d="M32.5 54.1668C38.2464 54.1668 43.7574 51.884 47.8207 47.8207C51.884 43.7574 54.1667 38.2464 54.1667 32.5001C54.1667 26.7537 51.884 21.2427 47.8207 17.1794C43.7574 13.1161 38.2464 10.8334 32.5 10.8334C26.7537 10.8334 21.2427 13.1161 17.1794 17.1794C13.1161 21.2427 10.8334 26.7537 10.8334 32.5001C10.8334 38.2464 13.1161 43.7574 17.1794 47.8207C21.2427 51.884 26.7537 54.1668 32.5 54.1668ZM32.5 5.41675C36.0567 5.41675 39.5785 6.11728 42.8644 7.47834C46.1503 8.83941 49.1359 10.8344 51.6508 13.3493C54.1658 15.8642 56.1607 18.8498 57.5218 22.1357C58.8828 25.4216 59.5834 28.9434 59.5834 32.5001C59.5834 39.683 56.7299 46.5718 51.6508 51.6509C46.5717 56.73 39.683 59.5834 32.5 59.5834C17.5229 59.5834 5.41669 47.3959 5.41669 32.5001C5.41669 25.3171 8.2701 18.4284 13.3492 13.3493C18.4283 8.27016 25.3171 5.41675 32.5 5.41675ZM33.8542 18.9584V33.1772L46.0417 40.4084L44.0104 43.7397L29.7917 35.2084V18.9584H33.8542Z" fill="white"/>
</svg>
