<svg width="65" height="65" viewBox="0 0 65 65" fill="none" xmlns="http://www.w3.org/2000/svg">
<path fill-rule="evenodd" clip-rule="evenodd" d="M23.4 12.8295C26.2527 11.5121 29.3578 10.8311 32.5 10.8334C36.3071 10.8328 40.0471 11.8353 43.3435 13.74C46.6399 15.6447 49.3762 18.3843 51.2769 21.683H49.2781C47.5177 21.683 46.0904 22.3601 46.0904 24.1205C46.0904 25.0143 46.0904 29.6455 40.6033 29.5589C35.2625 29.5589 35.2625 24.868 35.2625 24.1205C35.2625 20.2503 33.131 19.6518 30.5175 18.9124C29.5046 18.628 28.4212 18.322 27.3596 17.7993C24.6404 16.4532 23.7087 14.5953 23.4 12.8295ZM16.25 10.8334C13.1033 13.2028 10.5055 16.2237 8.63415 19.6897C6.51663 23.6272 5.41099 28.0293 5.41665 32.5001C5.41665 46.8245 16.5371 58.5516 30.615 59.5185L30.7612 59.5293C31.8027 59.5959 32.8472 59.6022 33.8894 59.5482H33.8948C35.26 59.4795 36.618 59.3075 37.9573 59.0337C40.0707 58.5991 42.1246 57.9135 44.0754 56.9916C50.1959 54.0885 55.0124 49.0055 57.5819 42.7376C58.9128 39.489 59.5928 36.0107 59.5833 32.5001C59.5856 30.2162 59.2989 27.9412 58.7302 25.7293C57.2288 19.9145 53.8374 14.7637 49.0892 11.0867C44.341 7.40978 38.5054 5.41525 32.5 5.41677C26.6387 5.40892 20.9343 7.31038 16.25 10.8334ZM52.4658 40.9312C51.8072 40.7313 51.1228 40.6291 50.4346 40.6278H49.8469C47.4015 40.6278 45.0563 41.599 43.327 43.3279C41.5976 45.0567 40.6257 47.4017 40.625 49.847V52.5932C45.9607 50.4261 50.219 46.2338 52.4658 40.9312ZM32.8087 54.1668H32.5C28.6832 54.1672 24.934 53.1594 21.6319 51.2453C18.3297 49.3312 15.5918 46.5788 13.6952 43.2666C11.7986 39.9544 10.8106 36.1999 10.8312 32.3832C10.8518 28.5665 11.8802 24.8229 13.8125 21.5314C16.3854 22.9966 17.661 25.6941 18.7823 28.072C19.3483 29.2664 19.8737 30.3822 20.5075 31.2191C21.97 33.1474 23.3864 33.9789 24.8164 34.8157C26.2248 35.6418 27.6521 36.4759 29.1498 38.3799C33.0498 43.3226 32.9929 50.2045 32.806 54.1641L32.8087 54.1668Z" fill="white"/>
</svg>
