<svg width="115" height="115" viewBox="0 0 115 115" fill="none" xmlns="http://www.w3.org/2000/svg">
<path d="M67.0834 100.625V81.4583C67.0834 78.9167 66.0737 76.4791 64.2765 74.6819C62.4793 72.8847 60.0417 71.875 57.5001 71.875C54.9584 71.875 52.5209 72.8847 50.7236 74.6819C48.9264 76.4791 47.9167 78.9167 47.9167 81.4583V100.625H67.0834Z" stroke="black" stroke-width="2" stroke-linecap="square"/>
<path d="M23.9584 100.625V47.9166H91.0417V100.625M23.9584 100.625H91.0417M23.9584 100.625H14.3751M91.0417 100.625H100.625M14.3655 43.1249C14.3751 45.5208 15.6209 47.9166 19.1667 47.9166C28.7501 47.9166 57.5001 9.58325 57.5001 9.58325C57.5001 9.58325 86.2501 47.9166 95.8334 47.9166C99.3792 47.9166 100.625 45.5208 100.625 43.1249" stroke="black" stroke-width="2" stroke-linecap="square"/>
</svg>
