<svg width="115" height="115" viewBox="0 0 115 115" fill="none" xmlns="http://www.w3.org/2000/svg">
<path d="M23.9583 45.521C23.9583 45.521 11.6365 50.3127 9.58325 67.0835M91.0416 45.521C91.0416 45.521 103.363 50.3127 105.417 67.0835M43.1249 45.521C43.1249 45.521 54.6249 48.3169 57.4999 62.2918C60.3749 48.3169 71.8749 45.521 71.8749 45.521M47.9166 81.4585C47.9166 81.4585 37.8541 83.2554 33.5416 95.8335M67.0833 81.4585C67.0833 81.4585 77.1458 83.2554 81.4583 95.8335" stroke="black" stroke-width="2" stroke-linecap="round"/>
<path d="M57.4999 86.2501C64.1158 86.2501 69.4791 80.8868 69.4791 74.2709C69.4791 67.655 64.1158 62.2917 57.4999 62.2917C50.884 62.2917 45.5208 67.655 45.5208 74.2709C45.5208 80.8868 50.884 86.2501 57.4999 86.2501Z" stroke="black" stroke-width="2" stroke-linecap="round" stroke-linejoin="round"/>
<path d="M81.4583 47.9167C89.3973 47.9167 95.8333 41.4808 95.8333 33.5417C95.8333 25.6027 89.3973 19.1667 81.4583 19.1667C73.5192 19.1667 67.0833 25.6027 67.0833 33.5417C67.0833 41.4808 73.5192 47.9167 81.4583 47.9167Z" stroke="black" stroke-width="2" stroke-linecap="round" stroke-linejoin="round"/>
<path d="M33.5415 47.9167C41.4806 47.9167 47.9165 41.4808 47.9165 33.5417C47.9165 25.6027 41.4806 19.1667 33.5415 19.1667C25.6024 19.1667 19.1665 25.6027 19.1665 33.5417C19.1665 41.4808 25.6024 47.9167 33.5415 47.9167Z" stroke="black" stroke-width="2" stroke-linecap="round" stroke-linejoin="round"/>
</svg>
