<svg width="115" height="115" viewBox="0 0 115 115" fill="none" xmlns="http://www.w3.org/2000/svg">
<path d="M82.1051 19.2962C91.5399 24.7443 98.2482 34.0257 100.745 45.1041C102.174 51.5189 102.182 58.1687 100.769 64.587C99.0389 72.5891 89.6951 75.0424 82.6035 70.9503L37.121 44.692C30.0293 40.5951 27.4801 31.2753 33.5464 25.7745C38.3964 21.3394 44.1581 18.0194 50.4274 16.0474C61.271 12.6789 72.6703 13.8432 82.1051 19.2962ZM82.1051 19.2962C75.5501 15.5107 60.2791 29.6941 47.9932 50.9691M82.1051 19.2962C88.6553 23.0768 84.0026 43.3887 71.7168 64.6684M59.8574 57.8164L42.5595 87.7834M76.2305 100.841C67.8684 92.4807 56.5281 87.7843 44.7038 87.7843C32.8794 87.7843 21.5392 92.4807 13.177 100.841" stroke="black" stroke-width="1.5" stroke-linecap="round" stroke-linejoin="round"/>
</svg>
