<svg width="115" height="115" viewBox="0 0 115 115" fill="none" xmlns="http://www.w3.org/2000/svg">
<path fill-rule="evenodd" clip-rule="evenodd" d="M70.1261 22.5065C59.2825 24.2986 47.4183 28.6638 39.9002 36.1867C33.0386 43.0484 31.5723 51.2325 32.569 58.5638C33.4075 64.6636 35.9375 70.0159 38.3429 73.2694L48.1563 63.4561L44.39 52.1717C44.2906 51.8728 44.251 51.5573 44.2735 51.2431C44.2961 50.9289 44.3803 50.6222 44.5213 50.3406C44.6624 50.0589 44.8575 49.8078 45.0956 49.6016C45.3337 49.3953 45.6101 49.238 45.909 49.1386C46.2079 49.0392 46.5234 48.9996 46.8376 49.0221C47.1518 49.0446 47.4585 49.1288 47.7401 49.2699C48.0218 49.4109 48.2729 49.6061 48.4791 49.8442C48.6854 50.0823 48.8427 50.3586 48.9421 50.6575L51.9417 59.6659L60.9883 50.624L59.1196 41.3042C59.0579 40.9956 59.0577 40.6778 59.1188 40.369C59.1799 40.0603 59.3013 39.7666 59.4759 39.5047C59.6506 39.2429 59.8751 39.018 60.1366 38.8429C60.3982 38.6678 60.6917 38.546 61.0003 38.4843C61.309 38.4226 61.6267 38.4224 61.9355 38.4835C62.2442 38.5447 62.5379 38.666 62.7998 38.8407C63.0616 39.0153 63.2865 39.2398 63.4616 39.5014C63.6367 39.7629 63.7586 40.0564 63.8202 40.365L65.0565 46.5511L74.5871 37.0253C74.8081 36.7964 75.0725 36.6139 75.3648 36.4883C75.6571 36.3628 75.9715 36.2967 76.2896 36.2939C76.6077 36.2912 76.9232 36.3518 77.2176 36.4722C77.5121 36.5927 77.7795 36.7706 78.0045 36.9956C78.2295 37.2205 78.4073 37.488 78.5278 37.7824C78.6483 38.0769 78.7089 38.3924 78.7061 38.7105C78.7034 39.0286 78.6373 39.343 78.5117 39.6353C78.3861 39.9276 78.2036 40.192 77.9748 40.413L68.449 49.9436L74.6302 51.1798C75.232 51.3246 75.7544 51.6967 76.088 52.2181C76.4215 52.7395 76.5403 53.3697 76.4195 53.9768C76.2988 54.5838 75.9477 55.1206 75.44 55.4745C74.9322 55.8285 74.3072 55.9723 73.6958 55.8757L64.3761 54.0117L55.3294 63.0584L64.3425 66.0627C64.6519 66.153 64.9399 66.3047 65.1893 66.5089C65.4387 66.713 65.6443 66.9654 65.7939 67.2508C65.9434 67.5363 66.0339 67.849 66.0598 68.1702C66.0857 68.4915 66.0465 68.8146 65.9446 69.1204C65.8427 69.4261 65.6801 69.7082 65.4666 69.9496C65.2532 70.1911 64.9932 70.387 64.7023 70.5256C64.4113 70.6642 64.0954 70.7427 63.7734 70.7564C63.4514 70.7701 63.13 70.7187 62.8283 70.6052L51.544 66.8438L41.7306 76.6571C44.989 79.0625 50.3365 81.5925 56.4363 82.4263C63.7675 83.4325 71.9517 81.9615 78.8133 75.0998C86.3363 67.5769 90.7015 55.7175 92.4888 44.874C93.38 39.4882 93.61 34.4761 93.3177 30.5469C93.2233 28.9047 92.9599 27.2765 92.5319 25.6882C92.1486 24.38 91.7461 23.7332 91.5065 23.4936C91.2669 23.254 90.62 22.8467 89.3119 22.4682C87.7236 22.0401 86.0954 21.7768 84.4531 21.6823C80.524 21.39 75.5119 21.62 70.1261 22.5065ZM38.3094 80.0736C42.2577 83.169 48.6402 86.1973 55.7894 87.1748C64.2706 88.3344 74.0648 86.6286 82.2011 78.4923C90.7302 69.9632 95.3494 56.9777 97.2181 45.655C98.1573 39.9578 98.4208 34.5575 98.095 30.1875C97.9321 28.0025 97.6158 26.0188 97.1367 24.3561C96.6671 22.7509 95.9771 21.1888 94.8942 20.1059C93.8113 19.023 92.2492 18.333 90.644 17.8682C88.7382 17.3493 86.7841 17.0281 84.8125 16.9098C80.4425 16.5744 75.0375 16.8428 69.345 17.7819C58.0271 19.6507 45.0321 24.2746 36.5077 32.7942C28.3715 40.9353 26.6656 50.7294 27.8252 59.2155C28.8027 66.355 31.8311 72.7423 34.9265 76.6859L17.4704 94.1371C17.0206 94.587 16.7678 95.1972 16.7678 95.8334C16.7678 96.4696 17.0206 97.0798 17.4704 97.5296C17.9203 97.9795 18.5305 98.2322 19.1667 98.2322C19.8029 98.2322 20.4131 97.9795 20.8629 97.5296L38.3094 80.0736Z" fill="black"/>
</svg>
