<svg width="115" height="115" viewBox="0 0 115 115" fill="none" xmlns="http://www.w3.org/2000/svg">
<path d="M20.3166 58.6978C18.422 56.8158 16.9209 54.5755 15.9008 52.1076C14.8807 49.6396 14.362 46.9933 14.3749 44.3228C14.3749 38.9218 16.5205 33.742 20.3396 29.9229C24.1587 26.1038 29.3385 23.9583 34.7395 23.9583C42.3103 23.9583 48.9228 28.0791 52.4207 34.2124H57.7874C59.5657 31.0933 62.1388 28.5012 65.2446 26.6999C68.3505 24.8987 71.8783 23.9527 75.4687 23.9583C80.8697 23.9583 86.0495 26.1038 89.8686 29.9229C93.6877 33.742 95.8333 38.9218 95.8333 44.3228C95.8333 49.9291 93.4374 55.1041 89.8916 58.6978L55.1041 93.4374L20.3166 58.6978ZM93.2457 62.0999C97.7978 57.4999 100.625 51.2708 100.625 44.3228C100.625 37.651 97.9745 31.2524 93.2568 26.5347C88.5391 21.817 82.1405 19.1666 75.4687 19.1666C67.0833 19.1666 59.6562 23.2395 55.1041 29.5645C52.7806 26.3373 49.7212 23.7106 46.1795 21.9023C42.6379 20.094 38.7161 19.1561 34.7395 19.1666C28.0676 19.1666 21.6691 21.817 16.9513 26.5347C12.2336 31.2524 9.58325 37.651 9.58325 44.3228C9.58325 51.2708 12.4103 57.4999 16.9624 62.0999L55.1041 100.242L93.2457 62.0999Z" fill="black"/>
</svg>
