<svg width="92" height="92" viewBox="0 0 92 92" fill="none" xmlns="http://www.w3.org/2000/svg">
<path d="M57.3853 22.6933C57.1276 21.75 56.5076 20.9468 55.6604 20.4586C54.8132 19.9703 53.8073 19.8367 52.862 20.0866L39.8287 23.5749L22.8087 7.78162L18.0937 9.04662L28.2903 26.6416L16.062 29.9L11.232 26.1433L7.66699 27.1016L14.0303 38.1416L54.7403 27.2549C56.7337 26.6799 57.8837 24.6483 57.3853 22.6933ZM80.5003 38.3333L76.667 45.9999H57.5003L53.667 38.3333L57.5003 34.4999H65.167V26.8333H69.0003V34.4999H76.667L80.5003 38.3333ZM84.3337 76.6666V84.3333H7.66699V76.6666H57.5003V49.8333H76.667V76.6666H84.3337Z" fill="#F49C0B"/>
</svg>
