<svg width="92" height="92" viewBox="0 0 92 92" fill="none" xmlns="http://www.w3.org/2000/svg">
<path d="M68.6167 66.6616C67.6201 63.595 64.7451 61.3333 61.3334 61.3333H57.5001V49.8333C57.5001 48.8166 57.0962 47.8416 56.3773 47.1227C55.6584 46.4038 54.6834 46 53.6667 46H30.6667V38.3333H38.3334C39.3501 38.3333 40.3251 37.9294 41.044 37.2105C41.7629 36.4916 42.1667 35.5166 42.1667 34.5V26.8333H49.8334C51.8667 26.8333 53.8168 26.0256 55.2546 24.5878C56.6923 23.15 57.5001 21.2 57.5001 19.1666V17.595C62.0866 19.444 66.1567 22.3769 69.362 26.1427C72.5674 29.9084 74.8125 34.3947 75.9052 39.2177C76.9979 44.0406 76.9057 49.0566 75.6363 53.8361C74.367 58.6156 71.9584 63.0163 68.6167 66.6616ZM42.1667 76.3983C27.0251 74.52 15.3334 61.64 15.3334 46C15.3334 43.6233 15.6401 41.3233 16.1384 39.1383L34.5001 57.5V61.3333C34.5001 63.3666 35.3078 65.3167 36.7456 66.7544C38.1834 68.1922 40.1334 69 42.1667 69M46.0001 7.66663C40.9661 7.66663 35.9814 8.65815 31.3305 10.5846C26.6797 12.511 22.4539 15.3346 18.8943 18.8942C11.7054 26.0831 7.66675 35.8333 7.66675 46C7.66675 56.1666 11.7054 65.9168 18.8943 73.1057C22.4539 76.6653 26.6797 79.4889 31.3305 81.4153C35.9814 83.3418 40.9661 84.3333 46.0001 84.3333C56.1667 84.3333 65.9169 80.2946 73.1058 73.1057C80.2947 65.9168 84.3334 56.1666 84.3334 46C84.3334 40.966 83.3419 35.9812 81.4155 31.3304C79.489 26.6796 76.6654 22.4538 73.1058 18.8942C69.5463 15.3346 65.3204 12.511 60.6696 10.5846C56.0188 8.65815 51.0341 7.66663 46.0001 7.66663Z" fill="#F49C0B"/>
</svg>
