<svg width="92" height="92" viewBox="0 0 92 92" fill="none" xmlns="http://www.w3.org/2000/svg">
<path fill-rule="evenodd" clip-rule="evenodd" d="M28.8533 25.2809C29.9005 25.6737 30.8103 26.3635 31.4715 27.2656C32.1326 28.1678 32.5162 29.2431 32.5755 30.36L32.6291 29.9537C32.8506 28.4687 33.6441 27.1292 34.84 26.2215C36.036 25.3138 37.5396 24.9099 39.0294 25.0961C40.5193 25.2823 41.8772 26.0439 42.8129 27.2181C43.7487 28.3923 44.188 29.8859 44.0371 31.3797L43.765 33.58C44.3955 31.1029 45.8333 28.9065 47.8512 27.3376C49.8692 25.7688 52.3524 24.9169 54.9085 24.9167H55.5831C58.3431 24.9167 61.1223 25.9517 62.9738 28.3207C64.7755 30.6284 65.1205 33.4727 64.5071 35.9107C64.2519 36.9197 63.7276 37.8405 62.9901 38.575C62.2526 39.3094 61.3297 39.8299 60.3196 40.0809C59.3095 40.332 58.2502 40.3042 57.2548 40.0004C56.2593 39.6967 55.3649 39.1285 54.667 38.3564L54.4753 39.8897C54.4529 40.0568 54.4863 40.2265 54.5701 40.3727C54.654 40.5189 54.7837 40.6334 54.9391 40.6985C57.1954 41.6466 59.1165 43.2479 60.4554 45.2966C61.7943 47.3453 62.4898 49.7476 62.4525 52.1947L71.2806 28.6465C71.7318 27.4426 72.5734 26.4245 73.6711 25.7551C74.7688 25.0857 76.0592 24.8034 77.3362 24.9535C78.6131 25.1036 79.8029 25.6773 80.7155 26.583C81.628 27.4887 82.2107 28.6741 82.3705 29.9499L86.2038 60.6165C86.3156 61.374 86.275 62.1462 86.0843 62.8877C85.8937 63.6293 85.5569 64.3253 85.0936 64.9349C84.6304 65.5446 84.05 66.0556 83.3867 66.4379C82.7233 66.8202 81.9902 67.0662 81.2305 67.1614C80.4708 67.2567 79.6997 67.1992 78.9625 66.9924C78.2252 66.7856 77.5367 66.4337 76.9374 65.9572C76.338 65.4808 75.8398 64.8894 75.4721 64.2178C75.1043 63.5462 74.8744 62.808 74.7958 62.0464L74.4661 59.4167H72.0281L70.5484 63.3535C70.115 64.5058 69.3231 65.4886 68.2894 66.1572C67.2556 66.8258 66.0345 67.145 64.8058 67.0677C63.5771 66.9905 62.4056 66.5209 61.4638 65.7281C60.5219 64.9353 59.8593 63.8611 59.5736 62.6635C58.4981 64.0402 57.123 65.1537 55.5528 65.9195C53.9826 66.6853 52.2586 67.0834 50.5116 67.0834H49.8331C47.8781 67.0834 44.5815 66.7499 42.3735 63.94C40.9283 62.0924 40.637 60.0109 40.6561 58.4354L40.2038 62.0464C40.1267 62.809 39.898 63.5486 39.5309 64.2216C39.1639 64.8945 38.666 65.4873 38.0665 65.9651C37.4671 66.4428 36.7781 66.7959 36.0402 67.0035C35.3023 67.2111 34.5303 67.2691 33.7697 67.174C33.0091 67.0789 32.2751 66.8327 31.611 66.4498C30.9469 66.067 30.3661 65.5552 29.9027 64.9446C29.4393 64.334 29.1026 63.6369 28.9125 62.8943C28.7224 62.1517 28.6827 61.3785 28.7958 60.6204L32.3225 32.3687L32.2151 32.6869L20.7151 63.3535C20.2412 64.6136 19.3402 65.6675 18.1691 66.3315C16.998 66.9955 15.631 67.2275 14.3064 66.9871C12.9818 66.7467 11.7835 66.0492 10.9204 65.016C10.0573 63.9829 9.58402 62.6796 9.58312 61.3334V36.0909C8.30215 35.6402 7.22199 34.7508 6.53396 33.5801C5.84593 32.4094 5.59442 31.033 5.82399 29.6946C6.05355 28.3562 6.74938 27.1423 7.78822 26.2678C8.82706 25.3933 10.1419 24.9147 11.4998 24.9167H15.3331C16.7075 24.9164 18.0365 25.4085 19.0794 26.3037C20.1222 27.1989 20.81 28.438 21.018 29.7965L21.4511 28.6465C21.9865 27.2196 23.0664 26.0636 24.4537 25.4325C25.841 24.8014 27.4258 24.7468 28.8533 25.2809ZM40.982 55.8287C41.277 54.8533 41.8259 53.9737 42.5726 53.2802C43.3193 52.5867 44.2369 52.1041 45.2314 51.8818C46.2259 51.6594 47.2617 51.7054 48.2326 52.015C49.2035 52.3246 50.0747 52.8867 50.757 53.6437L50.9486 52.1065C50.9698 51.9396 50.9355 51.7704 50.851 51.6249C50.7665 51.4794 50.6364 51.3658 50.481 51.3015C48.2466 50.3624 46.3405 48.7823 45.0033 46.7608C43.6661 44.7394 42.9578 42.3671 42.9676 39.9434L40.982 55.8287Z" fill="#F49C0B"/>
</svg>
